<svg width="9" height="9" viewBox="0 0 9 9" fill="none" xmlns="http://www.w3.org/2000/svg">
<path d="M8.29501 4.32398C8.26501 4.24661 8.22003 4.17593 8.16265 4.11599L5.01132 0.964653C4.95255 0.905888 4.88279 0.859273 4.80601 0.82747C4.72923 0.795666 4.64693 0.779297 4.56383 0.779297C4.39599 0.779297 4.23502 0.845972 4.11634 0.964653C4.05757 1.02342 4.01096 1.09318 3.97915 1.16996C3.94735 1.24674 3.93098 1.32904 3.93098 1.41214C3.93098 1.57998 3.99766 1.74095 4.11634 1.85963L6.19622 3.93321H1.41249C1.24534 3.93321 1.08503 3.99961 0.966828 4.11781C0.84863 4.23601 0.782227 4.39632 0.782227 4.56348C0.782227 4.73063 0.84863 4.89095 0.966828 5.00914C1.08503 5.12734 1.24534 5.19374 1.41249 5.19374H6.19622L4.11634 7.26732C4.05726 7.32591 4.01038 7.39562 3.97838 7.47243C3.94638 7.54923 3.92991 7.63161 3.92991 7.71481C3.92991 7.79801 3.94638 7.88039 3.97838 7.9572C4.01038 8.034 4.05726 8.10371 4.11634 8.1623C4.17493 8.22137 4.24464 8.26826 4.32144 8.30026C4.39825 8.33226 4.48063 8.34873 4.56383 8.34873C4.64703 8.34873 4.72941 8.33226 4.80621 8.30026C4.88302 8.26826 4.95273 8.22137 5.01132 8.1623L8.16265 5.01097C8.22003 4.95103 8.26501 4.88034 8.29501 4.80298C8.35805 4.64953 8.35805 4.47742 8.29501 4.32398Z" fill="#0E1E14"/>
</svg>
